<?xml version="1.0" encoding="utf-8"?>
<!-- Generator: Adobe Illustrator 22.0.1, SVG Export Plug-In . SVG Version: 6.00 Build 0)  -->
<svg version="1.1" xmlns="http://www.w3.org/2000/svg" xmlns:xlink="http://www.w3.org/1999/xlink" x="0px" y="0px"
	 viewBox="0 0 1417.3 1417.3" style="enable-background:new 0 0 1417.3 1417.3;" xml:space="preserve">
<style type="text/css">
	.st0{fill:#32323C;}
	.st1{fill:#C72026;}
	.st2{display:none;fill:#32323C;}
	.st3{display:none;}
	.st4{display:inline;fill:#32323C;}
	.st5{display:inline;}
</style>
<g id="Layer_1">
	
		<g id="Layer_1_1_" inkscape:version="0.92.5 (2060ec1f9f, 2020-04-08)" sodipodi:docname="hive-beaker2.svg" xmlns:cc="http://creativecommons.org/ns#" xmlns:dc="http://purl.org/dc/elements/1.1/" xmlns:inkscape="http://www.inkscape.org/namespaces/inkscape" xmlns:rdf="http://www.w3.org/1999/02/22-rdf-syntax-ns#" xmlns:sodipodi="http://sodipodi.sourceforge.net/DTD/sodipodi-0.dtd" xmlns:svg="http://www.w3.org/2000/svg">
		
			<sodipodi:namedview  bordercolor="#666666" borderopacity="1" gridtolerance="10" guidetolerance="10" id="namedview25" inkscape:current-layer="Layer_1" inkscape:cx="708.65997" inkscape:cy="473.36586" inkscape:pageopacity="0" inkscape:pageshadow="2" inkscape:window-height="1001" inkscape:window-maximized="1" inkscape:window-width="1920" inkscape:window-x="-9" inkscape:window-y="-9" inkscape:zoom="0.36" objecttolerance="10" pagecolor="#ffffff" showgrid="false">
			</sodipodi:namedview>
		<title  id="title6">HIVE-Artwork</title>
		<path id="path8_1_" inkscape:connector-curvature="0" class="st0" d="M1118,1028.8c1.3-15.8,1.8-31.8,1.3-47.7
			c-0.5-15.4-1.9-30.8-4.2-46.1l-80.2-13.3l-27.2-75.9l53.5-61.3c-16.2-26.8-35.4-51.7-57.3-74.2L931,747l-50.8-34.6V512.1H946
			v-86.3H810.3V746c16.3,6.3,31.9,14.2,46.6,23.6l0,0l-1.1-0.6c123.9,78.4,160.9,242.5,82.4,366.4s-242.5,160.9-366.4,82.4
			s-160.9-242.5-82.4-366.4c20.8-32.9,48.6-60.8,81.4-81.8h0.4c13-8.3,26.8-15.5,41-21.4V425.8h-130v86.4h56.2v205.6l-1.2,0.9
			l-53.5,41L409,727.4c-20.6,23.6-38.5,49.5-53.1,77.2l56.9,58.1L389.9,940l-79.4,17.9c-1.5,16.3-2,32.6-1.5,49
			c0.6,15,1.9,29.9,4,44.7l80.3,13.5l26.9,76l-53.8,61.2c16.2,27,35.4,52,57.3,74.6l72.9-36.4L563,1286l-7.5,81.1
			c28.9,12.3,59,21.2,89.9,26.5l37.4-72.4l80.7-2.2l41.6,70.1c30.6-7.1,60.2-17.7,88.4-31.6l-12.1-80.5l63.9-49.3l74.8,32
			c20.7-23.6,38.5-49.6,53.1-77.4l-57.2-57.9l22.6-77.5L1118,1028.8z"/>
		<path id="path10" inkscape:connector-curvature="0" class="st1" d="M831.1,1021c-44.7-4.1-84.5-21.2-125.4-37
			c-53.2-21-111.2-26.4-167.4-15.9c-17.3,3.1-34.3,7.3-51.1,12.6c0,1.3,0,2.7,0,4c-0.1,127.9,103.5,231.6,231.4,231.7
			c117.3,0.1,216.1-87.6,230.1-204.1C910.3,1021.8,870.5,1024.7,831.1,1021L831.1,1021z"/>
		<circle id="circle12" class="st1" cx="810.5" cy="896" r="42.8"/>
		<circle id="circle14" class="st1" cx="671.9" cy="839.8" r="14.8"/>
		<circle id="circle16" class="st1" cx="731.8" cy="695.9" r="22.2"/>
		<circle id="circle18" class="st1" cx="702.5" cy="396.3" r="36.4"/>
		<circle id="circle20" class="st1" cx="859.6" cy="280.1" r="58.1"/>
		<circle id="circle22" class="st1" cx="681" cy="101" r="82.9"/>
		<path class="st2" d="M1118.8,1029c1.5-15.4,2-30.8,1.6-46.2c-0.4-15.9-1.7-31.8-3.9-47.5l-80.2-13.5l-26.9-76.2l53.9-61
			c-16.2-26.9-35.4-51.9-57.4-74.3L933,746.4l-66.5-45.7l7.6-81.1c-28.9-12.3-59.1-21.2-90-26.6l-37.6,72.3l-80.7,2.3l-41.4-70.2
			c-30.6,7.1-60.2,17.6-88.3,31.5l12,80.6l-63.9,49.2l-74.9-32.3c-20.6,23.8-38.4,49.8-53.1,77.7l57.2,58.1l-22.7,77.4l-79.4,18
			c-1.3,14.9-1.7,29.9-1.5,44.9c0.4,16.3,1.9,32.6,4.2,48.8l80.3,13.4l27.2,75.9l-53.5,61.2c16.1,26.9,35.4,51.7,57.3,74.1
			l72.8-36.4l65.3,45.3c-2.5,27-5,54.1-7.6,81.1c41.5,15.1,41.5,15.1,89.9,26.6c12.5-24.1,25-48.2,37.5-72.3l80.7-2.1l41.5,70.2
			c47.3-14,47.3-14,88.4-31.5c-4-26.9-8-53.7-12-80.6l63.7-49.1l74.7,32.4c20.6-23.6,38.4-49.5,53.1-77.2l-56.8-58.2l22.9-77.3
			L1118.8,1029z M713.1,1259.3c-146.5-0.2-265.1-119.1-265-265.7s119.1-265.1,265.7-265s265.1,119.1,265,265.7
			S859.6,1259.5,713.1,1259.3z"/>
	</g>
	<g id="Layer_3" class="st3">
		<polygon class="st4" points="880.2,511.1 946,511.1 946,424.8 810.3,424.8 810.3,745 880.2,711.4 		"/>
		<g class="st5">
			<polygon class="st0" points="612.2,424.8 482.2,424.8 482.2,511.2 538.4,511.2 538.4,716.8 612.2,747.2 			"/>
		</g>
	</g>
</g>
<g id="Layer_4">
</g>
<g id="Layer_2">
</g>
</svg>
