<svg xmlns="http://www.w3.org/2000/svg" viewBox="0 0 1000 1000">
  <defs>
    <style>
      .a {
        fill: #32323c;
      }

      .b {
        fill: #fff;
      }

      .c {
        fill: #c72026;
      }
    </style>
  </defs>
  <title>HiveBeakerLayers-clean3</title>
  <path class="a" d="M784.26,727c1.8-25.26,1.39-43.81-2-66l-56.41-9.35-19.14-53.39,37.64-43.12A289.44,289.44,0,0,0,704,502.91l-51.28,25.82-46.27-32.44,5.22-57.05c-23.95-9.73-35.86-13.09-63.26-18.58q-13.12,25.47-26.26,50.95l-56.76,1.6-29.31-49.28c-28.73,7.33-41.07,12.45-62.17,22.29l8.57,56.62-44.92,34.72-52-22.62a284.34,284.34,0,0,0-37.35,54.3l40,40.87-16.11,54.38-55.86,12.59c-2.74,18.57-1.53,45.85,1.36,66l56.89,9.36L293.4,806l-37.84,43a288.89,288.89,0,0,0,40.3,52.48l51.28-25.6,46.71,32-5.27,57a284.07,284.07,0,0,0,63.24,18.64l26.31-50.93,56.76-1.54,29.27,49.31a287.83,287.83,0,0,0,62.18-22.23l-8.51-56.63,44.95-34.68,52.62,22.51a280,280,0,0,0,37.35-54.44l-40.24-40.73,15.9-54.52ZM501.5,890.74c-103.55,0-187.5-84-187.5-187.5S398,515.74,501.5,515.74s187.5,84,187.5,187.5S605.06,890.74,501.5,890.74Z" transform="translate(0.61 0.43)"/>
  <path class="b" d="M-.61-.43v1000h1000V-.43ZM501.5,890.74c-103.55,0-187.5-84-187.5-187.5A187.54,187.54,0,0,1,428.33,530.56V302.87H567.67v224.9A187.54,187.54,0,0,1,689,703.24C689,806.79,605.06,890.74,501.5,890.74Z" transform="translate(0.61 0.43)"/>
  <circle class="c" cx="568.02" cy="634.19" r="30.11"/>
  <circle class="c" cx="470.52" cy="594.65" r="10.41"/>
  <circle class="c" cx="512.66" cy="493.43" r="15.62"/>
  <circle class="c" cx="492.05" cy="282.68" r="25.61"/>
  <circle class="c" cx="602.56" cy="200.93" r="40.87"/>
  <circle class="c" cx="476.93" cy="74.95" r="58.32"/>
  <path class="a" d="M428.32,529.66V302.87H336.87v60.77h39.54V508.27h0l51.89,21.4Z" transform="translate(0.61 0.43)"/>
  <path class="a" d="M616.84,363.57h46.29v-60.7H567.67V528.11h0l49.14-23.65Z" transform="translate(0.61 0.43)"/>
  <circle class="b" cx="502.14" cy="703.67" r="160"/>
  <path class="c" d="M916.91,720.82a258,258,0,0,1-78.48-23.28,240,240,0,0,0-49.68-14.4c-47.52-8.34-87.66,2.8-110.9,10-56.34,17.53-63.13,24-105.69,33.05-85.83,18.25-115.64-52.55-194-27.42-14.54,4.66-57.51,21.12-93,23.43a229.32,229.32,0,0,1-45-1.42c-26.29-3.64-39.12-7.11-78.48-23.28a240,240,0,0,0-49.68-14.4c-38.7-6.79-75.95-1-110.9,10-.6.18-1.18.38-1.77.57v166h1000V716.34C975,721.78,947.93,724.78,916.91,720.82Z" transform="translate(0.61 0.43)"/>
  <path class="c" d="M581.9,721.69c-31.44-2.88-59.44-14.91-88.21-26a213.69,213.69,0,0,0-117.76-11.18A287.35,287.35,0,0,0,340,693.34v2.82a162.9,162.9,0,0,0,324.64,19.41,248.23,248.23,0,0,1-82.73,6.12Z" transform="translate(0.61 0.43)"/>
</svg>
