<svg id="hivebeakerlayers-clean" xmlns="http://www.w3.org/2000/svg" xmlns:xlink="http://www.w3.org/1999/xlink" viewBox="0 0 1000 1000" shape-rendering="geometricPrecision" text-rendering="geometricPrecision" style="background-color:rgb(255,255,255)"><style><![CDATA[#hivebeakerlayers-clean-cog_tr {animation: hivebeakerlayers-clean-cog_tr__tr 3000ms linear infinite normal forwards}@keyframes hivebeakerlayers-clean-cog_tr__tr { 0% {transform: translate(500.616515px,702.520000px) rotate(0deg)} 100% {transform: translate(500.616515px,702.520000px) rotate(360deg)}} #hivebeakerlayers-clean-bubblebottom1_to {animation: hivebeakerlayers-clean-bubblebottom1_to__to 3000ms linear infinite normal forwards}@keyframes hivebeakerlayers-clean-bubblebottom1_to__to { 0% {transform: translate(568.280020px,760.840033px)} 100% {transform: translate(568.020020px,634.190033px)}} #hivebeakerlayers-clean-bubblebottom1 {animation: hivebeakerlayers-clean-bubblebottom1_c_o 3000ms linear infinite normal forwards}@keyframes hivebeakerlayers-clean-bubblebottom1_c_o { 0% {opacity: 1} 96.666667% {opacity: 1} 100% {opacity: 0}} #hivebeakerlayers-clean-bubblebottom2_to {animation: hivebeakerlayers-clean-bubblebottom2_to__to 3000ms linear infinite normal forwards}@keyframes hivebeakerlayers-clean-bubblebottom2_to__to { 0% {transform: translate(460px,716px)} 40% {transform: translate(471.579898px,663.650055px)} 100% {transform: translate(470.519989px,594.650055px)}} #hivebeakerlayers-clean-bubblebottom2 {animation: hivebeakerlayers-clean-bubblebottom2_c_o 3000ms linear infinite normal forwards}@keyframes hivebeakerlayers-clean-bubblebottom2_c_o { 0% {opacity: 0.980000} 93.333333% {opacity: 0.980000} 100% {opacity: 0}} #hivebeakerlayers-clean-bubblebottom3_to {animation: hivebeakerlayers-clean-bubblebottom3_to__to 3000ms linear infinite normal forwards}@keyframes hivebeakerlayers-clean-bubblebottom3_to__to { 0% {transform: translate(515.619973px,770.380188px)} 100% {transform: translate(512.659973px,493.429993px)}} #hivebeakerlayers-clean-bubblebottom3 {animation: hivebeakerlayers-clean-bubblebottom3_c_o 3000ms linear infinite normal forwards}@keyframes hivebeakerlayers-clean-bubblebottom3_c_o { 0% {opacity: 1} 90% {opacity: 1} 100% {opacity: 0}} #hivebeakerlayers-clean-bubble4_to {animation: hivebeakerlayers-clean-bubble4_to__to 3000ms linear infinite normal forwards}@keyframes hivebeakerlayers-clean-bubble4_to__to { 0% {transform: translate(500.616534px,744.770203px)} 100% {transform: translate(492.050018px,282.680008px)}} #hivebeakerlayers-clean-bubble4 {animation: hivebeakerlayers-clean-bubble4_c_o 3000ms linear infinite normal forwards}@keyframes hivebeakerlayers-clean-bubble4_c_o { 0% {opacity: 1} 86.666667% {opacity: 1} 100% {opacity: 0}} #hivebeakerlayers-clean-bubble5_to {animation: hivebeakerlayers-clean-bubble5_to__to 3000ms linear infinite normal forwards}@keyframes hivebeakerlayers-clean-bubble5_to__to { 0% {transform: translate(587.484150px,770.380188px)} 40% {transform: translate(527.305998px,519.064110px)} 60% {transform: translate(530.869998px,413.019404px)} 80% {transform: translate(531px,306.974698px)} 86.666667% {transform: translate(542px,271.626463px)} 100% {transform: translate(602.559998px,200.929993px)}} #hivebeakerlayers-clean-bubble5 {animation: hivebeakerlayers-clean-bubble5_c_o 3000ms linear infinite normal forwards}@keyframes hivebeakerlayers-clean-bubble5_c_o { 0% {opacity: 0.980000} 83.333333% {opacity: 0.980000} 100% {opacity: 0}} #hivebeakerlayers-clean-bubbletop6_to {animation: hivebeakerlayers-clean-bubbletop6_to__to 3000ms linear infinite normal forwards}@keyframes hivebeakerlayers-clean-bubbletop6_to__to { 0% {transform: translate(457.299993px,754.760188px)} 26.666667% {transform: translate(498.332104px,558.319993px)} 100% {transform: translate(476.929993px,74.949993px)}} #hivebeakerlayers-clean-bubbletop6 {animation: hivebeakerlayers-clean-bubbletop6_c_o 3000ms linear infinite normal forwards}@keyframes hivebeakerlayers-clean-bubbletop6_c_o { 0% {opacity: 1} 76.666667% {opacity: 1} 100% {opacity: 0}}]]></style><g id="hivebeakerlayers-clean-mask-group" mask="url(#hivebeakerlayers-clean-masks)"><g id="hivebeakerlayers-clean-cog_tr" transform="translate(500.616515,702.520000) rotate(0)"><path id="hivebeakerlayers-clean-cog" d="M784.260000,727C786.060000,701.740000,785.650000,683.190000,782.260000,661L725.850000,651.650000L706.710000,598.260000L744.350000,555.140000C732.935482,536.248439,719.397489,518.724538,704,502.910000L652.720000,528.730000L606.450000,496.290000L611.670000,439.240000C587.720000,429.510000,575.810000,426.150000,548.410000,420.660000Q535.290000,446.130000,522.150000,471.610000L465.390000,473.210000L436.080000,423.930000C407.350000,431.260000,395.010000,436.380000,373.910000,446.220000L382.480000,502.840000L337.560000,537.560000L285.560000,514.940000C271.047355,531.531084,258.513181,549.753456,248.210000,569.240000L288.210000,610.110000L272.100000,664.490000L216.240000,677.080000C213.500000,695.650000,214.710000,722.930000,217.600000,743.080000L274.490000,752.440000L293.400000,806L255.560000,849C266.939021,867.979081,280.461027,885.587887,295.860000,901.480000L347.140000,875.880000L393.850000,907.880000L388.580000,964.880000C408.865079,973.526796,430.087979,979.782249,451.820000,983.520000L478.130000,932.590000L534.890000,931.050000L564.160000,980.360000C585.670851,975.359978,606.534789,967.900903,626.340000,958.130000L617.830000,901.500000L662.780000,866.820000L715.400000,889.330000C729.953308,872.719749,742.490436,854.446087,752.750000,834.890000L712.510000,794.160000L728.410000,739.640000ZM501.500000,890.740000C397.950000,890.740000,314,806.740000,314,703.240000C314,599.740000,398,515.740000,501.500000,515.740000C605,515.740000,689,599.740000,689,703.240000C689,806.740000,605.060000,890.740000,501.500000,890.740000Z" transform="translate(-500.006515,-702.090000)" fill="rgb(50,50,60)" stroke="none" stroke-width="1"/></g><mask id="hivebeakerlayers-clean-masks" mask-type="luminance"><path id="hivebeakerlayers-clean-path1" d="M-0.610000,-0.430000L-0.610000,999.570000L999.390000,999.570000L999.390000,-0.430000ZM501.500000,890.740000C397.950000,890.740000,314,806.740000,314,703.240000C313.992054,627.948553,359.012323,559.951526,428.330000,530.560000L428.330000,302.870000L567.670000,302.870000L567.670000,527.770000C640.681470,555.320378,689.002648,625.203482,689,703.240000C689,806.790000,605.060000,890.740000,501.500000,890.740000Z" transform="matrix(1 0 0 1 0.61000000000000 0.43000000000000)" fill="rgb(255,255,255)" stroke="none" stroke-width="1"/></mask></g><path id="hivebeakerlayers-clean-liquid" d="M581.900000,721.690000C550.460000,718.810000,522.460000,706.780000,493.690000,695.690000C456.270691,680.956661,415.453328,677.081507,375.930000,684.510000C363.776081,686.678420,351.774543,689.627866,340,693.340000L340,696.160000C339.997741,782.352845,407.138487,853.629660,493.177684,858.773883C579.216882,863.918107,654.372135,801.149072,664.640000,715.570000C637.601846,722.236106,609.634728,724.304990,581.910000,721.690000Z" transform="matrix(1 0 0 1 0.61000000000000 0.43000000000000)" fill="rgb(199,32,38)" stroke="none" stroke-width="1"/><g id="hivebeakerlayers-clean-bubblebottom1_to" transform="translate(568.280020,760.840033)"><circle id="hivebeakerlayers-clean-bubblebottom1" r="30.110000" transform="translate(-0.000020,-0.000033)" fill="rgb(199,32,38)" stroke="none" stroke-width="1"/></g><g id="hivebeakerlayers-clean-bubblebottom2_to" transform="translate(460,716)"><circle id="hivebeakerlayers-clean-bubblebottom2" r="10.165000" transform="translate(0.000011,-0.245055)" opacity="0.98" fill="rgb(199,32,38)" stroke="none" stroke-width="1"/></g><g id="hivebeakerlayers-clean-bubblebottom3_to" transform="translate(515.619973,770.380188)"><circle id="hivebeakerlayers-clean-bubblebottom3" r="15.620000" transform="translate(0.000027,0.000007)" fill="rgb(199,32,38)" stroke="none" stroke-width="1"/></g><g id="hivebeakerlayers-clean-bubble4_to" transform="translate(500.616534,744.770203)"><circle id="hivebeakerlayers-clean-bubble4" r="25.610000" transform="translate(-0.000018,-0.000008)" fill="rgb(199,32,38)" stroke="none" stroke-width="1"/></g><g id="hivebeakerlayers-clean-bubble5_to" transform="translate(587.484150,770.380188)"><circle id="hivebeakerlayers-clean-bubble5" r="40.870000" transform="translate(0.000002,0.000007)" opacity="0.98" fill="rgb(199,32,38)" stroke="none" stroke-width="1"/></g><g id="hivebeakerlayers-clean-bubbletop6_to" transform="translate(457.299993,754.760188)"><circle id="hivebeakerlayers-clean-bubbletop6" r="58.320000" transform="translate(0.000007,0.000007)" fill="rgb(199,32,38)" stroke="none" stroke-width="1"/></g><path id="hivebeakerlayers-clean-beakerleft" d="M428.320000,529.660000L428.320000,302.870000L336.870000,302.870000L336.870000,363.640000L376.410000,363.640000L376.410000,508.270000L376.410000,508.270000L428.300000,529.670000Z" transform="matrix(1 0 0 1 0.61000000000000 0.43000000000000)" fill="rgb(50,50,60)" stroke="none" stroke-width="1"/><path id="hivebeakerlayers-clean-beakerright" d="M616.840000,363.570000L663.130000,363.570000L663.130000,302.870000L567.670000,302.870000L567.670000,528.110000L567.670000,528.110000L616.810000,504.460000Z" transform="matrix(1 0 0 1 0.61000000000000 0.43000000000000)" fill="rgb(50,50,60)" stroke="none" stroke-width="1"/></svg>