<svg id="hiveFlask" xmlns="http://www.w3.org/2000/svg" xmlns:xlink="http://www.w3.org/1999/xlink"
    viewBox="0 0 1000 1000" shape-rendering="geometricPrecision" text-rendering="geometricPrecision"
    style="background-color:transparent">
    <style>
        <![CDATA[

        /* --STYLING-- */
        
            :root {
            --primary: rgb(199,32,38);
            --secondary: rgb(50,50,60);
            --tertiary: rgb(255, 255, 255);
            }

            .red {
                fill: var(--primary);
            }

            .grey {
                fill: var(--secondary);
            }

            .white {
                fill: var(--tertiary);
            }

        /* --ANIMATION-- */

        #gearGroup {
            animation: gearGroup_rotate 3000ms linear infinite normal forwards
        }

        @keyframes gearGroup_rotate {
            0% {
                transform: translate(500.616515px, 702.520000px) rotate(0deg)
            }

            100% {
                transform: translate(500.616515px, 702.520000px) rotate(360deg)
            }
        }

        #bubble6FromTopGroup {
            animation: bubble6FromTopGroup_position 3000ms linear infinite normal forwards
        }

        @keyframes bubble6FromTopGroup_position {
            0% {
                transform: translate(589.540017px, 765.340026px)
            }

            56.666667% {
                transform: translate(589.540017px, 765.340026px)
            }

            100% {
                transform: translate(568.020020px, 634.190033px)
            }
        }

        #bubble6FromTop {
            animation: bubble6FromTop_opacity 3000ms linear infinite normal forwards
        }

        @keyframes bubble6FromTop_opacity {
            0% {
                opacity: 1
            }

            80% {
                opacity: 1
            }

            100% {
                opacity: 0
            }
        }

        #bubble5FromTopGroup {
            animation: bubble5FromTopGroup_position 3000ms linear infinite normal forwards
        }

        @keyframes bubble5FromTopGroup_position {
            0% {
                transform: translate(412.129993px, 745.835541px)
            }

            73.333333% {
                transform: translate(412.129993px, 745.835541px)
            }

            100% {
                transform: translate(470.519989px, 594.650055px)
            }
        }

        #bubble5FromTop {
            animation: bubble5FromTop_opacity 3000ms linear infinite normal forwards
        }

        @keyframes bubble5FromTop_opacity {
            0% {
                opacity: 1
            }

            76.666667% {
                opacity: 1
            }

            96.666667% {
                opacity: 0
            }

            100% {
                opacity: 0
            }
        }

        #bubble4FromTopGroup {
            animation: bubble4FromTopGroup_position 3000ms linear infinite normal forwards
        }

        @keyframes bubble4FromTopGroup_position {
            0% {
                transform: translate(538.328973px, 751.045479px)
            }

            53.333333% {
                transform: translate(538.328973px, 751.045479px)
            }

            100% {
                transform: translate(512.659973px, 493.429993px)
            }
        }

        #bubble4FromTop {
            animation: bubble4FromTop_opacity 3000ms linear infinite normal forwards
        }

        @keyframes bubble4FromTop_opacity {
            0% {
                opacity: 1
            }

            73.333333% {
                opacity: 1
            }

            100% {
                opacity: 0
            }
        }

        #bubble3FromTopGroup {
            animation: bubble3FromTopGroup_position 3000ms linear infinite normal forwards
        }

        @keyframes bubble3FromTopGroup_position {
            0% {
                transform: translate(434.500018px, 761.035494px)
            }

            33.333333% {
                transform: translate(434.500018px, 761.035494px)
            }

            100% {
                transform: translate(492.050018px, 282.680008px)
            }
        }

        #bubble3FromTop {
            animation: bubble3FromTop_opacity 3000ms linear infinite normal forwards
        }

        @keyframes bubble3FromTop_opacity {
            0% {
                opacity: 1
            }

            63.333333% {
                opacity: 1
            }

            100% {
                opacity: 0.010000
            }
        }

        #bubble2FromTopGroup {
            animation: bubble2FromTopGroup_position 3000ms linear infinite normal forwards
        }

        @keyframes bubble2FromTopGroup_position {
            0% {
                transform: translate(548.669998px, 773.021573px)
            }

            13.333333% {
                transform: translate(548.669998px, 773.021573px)
            }

            43.333333% {
                transform: translate(527.410000px, 590.328571px)
            }

            70% {
                transform: translate(513.541500px, 407.082181px)
            }

            86.666667% {
                transform: translate(527.410000px, 292.553188px)
            }

            100% {
                transform: translate(602.559998px, 200.929993px)
            }
        }

        #bubble2FromTop {
            animation: bubble2FromTop_opacity 3000ms linear infinite normal forwards
        }

        @keyframes bubble2FromTop_opacity {
            0% {
                opacity: 1
            }

            73.333333% {
                opacity: 1
            }

            100% {
                opacity: 0
            }
        }

        #bubble1FromTopGroup {
            animation: bubble1FromTopGroup__to 3000ms linear infinite normal forwards
        }

        @keyframes bubble1FromTopGroup__to {
            0% {
                transform: translate(455.959998px, 760.840000px)
            }

            36.666667% {
                transform: translate(499.699332px, 510.974996px)
            }

            70% {
                transform: translate(493.730000px, 272.331145px)
            }

            100% {
                transform: translate(476.929993px, 74.949993px)
            }
        }

        #bubble1FromTop {
            animation: bubble1FromTop_opacity 3000ms linear infinite normal forwards
        }

        @keyframes bubble1FromTop_opacity {
            0% {
                opacity: 1
            }

            83.333333% {
                opacity: 1
            }

            100% {
                opacity: 0
            }
        }

        #liquidGroup {
            animation: liquidGroup__to 3000ms linear infinite normal forwards
        }

        @keyframes liquidGroup__to {
            0% {
                transform: translate(338.150000px, 4px)
            }

            100% {
                transform: translate(-334.080000px, 4px)
            }
        }
        ]]>
    </style>
    <g mask="url(#gearGroupMask)">
        <g id="gearGroup" transform="translate(500.616515,702.520000) rotate(0)">
            <path id="gear"
                d="M784.260000,727C786.060000,701.740000,785.650000,683.190000,782.260000,661L725.850000,651.650000L706.710000,598.260000L744.350000,555.140000C732.935482,536.248439,719.397489,518.724538,704,502.910000L652.720000,528.730000L606.450000,496.290000L611.670000,439.240000C587.720000,429.510000,575.810000,426.150000,548.410000,420.660000Q535.290000,446.130000,522.150000,471.610000L465.390000,473.210000L436.080000,423.930000C407.350000,431.260000,395.010000,436.380000,373.910000,446.220000L382.480000,502.840000L337.560000,537.560000L285.560000,514.940000C271.047355,531.531084,258.513181,549.753456,248.210000,569.240000L288.210000,610.110000L272.100000,664.490000L216.240000,677.080000C213.500000,695.650000,214.710000,722.930000,217.600000,743.080000L274.490000,752.440000L293.400000,806L255.560000,849C266.939021,867.979081,280.461027,885.587887,295.860000,901.480000L347.140000,875.880000L393.850000,907.880000L388.580000,964.880000C408.865079,973.526796,430.087979,979.782249,451.820000,983.520000L478.130000,932.590000L534.890000,931.050000L564.160000,980.360000C585.670851,975.359978,606.534789,967.900903,626.340000,958.130000L617.830000,901.500000L662.780000,866.820000L715.400000,889.330000C729.953308,872.719749,742.490436,854.446087,752.750000,834.890000L712.510000,794.160000L728.410000,739.640000ZM501.500000,890.740000C397.950000,890.740000,314,806.740000,314,703.240000C314,599.740000,398,515.740000,501.500000,515.740000C605,515.740000,689,599.740000,689,703.240000C689,806.740000,605.060000,890.740000,501.500000,890.740000Z"
                transform="translate(-500.006515,-702.090000)" class="grey"/>
        </g>
        <mask id="gearGroupMask" mask-type="luminance">
            <path
                d="M-0.610000,-0.430000L-0.610000,999.570000L999.390000,999.570000L999.390000,-0.430000ZM501.500000,890.740000C397.950000,890.740000,314,806.740000,314,703.240000C313.992054,627.948553,359.012323,559.951526,428.330000,530.560000L428.330000,302.870000L567.670000,302.870000L567.670000,527.770000C640.681470,555.320378,689.002648,625.203482,689,703.240000C689,806.790000,605.060000,890.740000,501.500000,890.740000Z"
                transform="matrix(1 0 0 1 0.61000000000000 0.43000000000000)" class="white"/>
        </mask>
    </g>
    <g id="bubble6FromTopGroup" transform="translate(589.540017,765.340026)">
        <circle id="bubble6FromTop" r="30.110000" transform="translate(-0.000020,-0.000033)" class="red"/>
    </g>
    <g id="bubble5FromTopGroup" transform="translate(412.129993,745.835541)">
        <circle id="bubble5FromTop" r="10.410000" transform="translate(0.000011,-0.000055)" class="red"/>
    </g>
    <g id="bubble4FromTopGroup" transform="translate(538.328973,751.045479)">
        <circle id="bubble4FromTop" r="15.620000" transform="translate(0.000027,0.000007)" class="red"/>
    </g>
    <g id="bubble3FromTopGroup" transform="translate(434.500018,761.035494)">
        <circle id="bubble3FromTop" r="25.610000" transform="translate(-0.000018,-0.000008)" class="red"/>
    </g>
    <g id="bubble2FromTopGroup" transform="translate(548.669998,773.021573)">
        <circle id="bubble2FromTop" r="40.870000" transform="translate(-0,-3.851579)" class="red"/>
    </g>
    <g id="bubble1FromTopGroup" transform="translate(455.959998,760.840000)">
        <circle id="bubble1FromTop" r="58.320000" transform="translate(-6.480000,-0)" class="red"/>
    </g>
    <path id="flaskright"
        d="M616.840000,363.570000L663.130000,363.570000L663.130000,302.870000L567.670000,302.870000L567.670000,528.110000L567.670000,528.110000L616.810000,504.460000Z"
        transform="matrix(1 0 0 1 0.61000000000000 0.43000000000000)" class="grey"/>
    <path id="flaskLeft"
        d="M428.320000,529.660000L428.320000,302.870000L336.870000,302.870000L336.870000,363.640000L376.410000,363.640000L376.410000,508.270000L376.410000,508.270000L428.300000,529.670000Z"
        transform="matrix(1 0 0 1 0.61000000000000 0.43000000000000)" class="grey"/>
    <g mask="url(#liquidGroupMask)">
        <g id="liquidGroup" transform="translate(338.150000,4)">
            <path id="liquid"
                d="M916.910000,720.820000C889.677783,717.286010,863.184380,709.427111,838.430000,697.540000C822.437115,690.964297,805.780403,686.136265,788.750000,683.140000C741.230000,674.800000,701.090000,685.940000,677.850000,693.140000C621.510000,710.670000,614.720000,717.140000,572.160000,726.190000C486.330000,744.440000,456.520000,673.640000,378.160000,698.770000C363.620000,703.430000,320.650000,719.890000,285.160000,722.200000C270.149734,723.203852,255.077111,722.728227,240.160000,720.780000C213.870000,717.140000,201.040000,713.670000,161.680000,697.500000C145.687115,690.924297,129.030403,686.096265,112,683.100000C73.300000,676.310000,36.050000,682.100000,1.100000,693.100000C0.500000,693.280000,-0.080000,693.480000,-0.670000,693.670000L-0.670000,859.670000L999.330000,859.670000L999.330000,716.340000C975,721.780000,947.930000,724.780000,916.910000,720.820000Z"
                transform="translate(0,0)" class="red"/>
        </g>
        <mask id="liquidGroupMask" mask-type="luminance">
            <circle r="160"
                transform="matrix(1 0 0 1 502.13999999999999 703.66999999999996)" class="white"/>
        </mask>
    </g>
</svg>